<svg xmlns="http://www.w3.org/2000/svg" width="24" height="24" viewBox="0 0 24 24">
  <path d="M0.78 6.32l1.56 1.56c3.877 -3.877 10.163 -3.877 14.04 0l1.56 -1.56C13.205 1.585 5.522 1.585 0.78 6.32zM7.02 12.56l2.34 2.34l2.34 -2.34c-1.287 -1.295 -3.385 -1.295 -4.68 0zM3.9 9.44l1.56 1.56c2.153 -2.153 5.647 -2.153 7.8 0l1.56 -1.56C11.809 6.429 6.919 6.429 3.9 9.44z" fill="#ffffff"/>
  <path d="M18.4 13.1C21.327 13.1 23.7 15.473 23.7 18.4C23.7 21.327 21.327 23.7 18.4 23.7C15.473 23.7 13.1 21.327 13.1 18.4C13.1 15.473 15.473 13.1 18.4 13.1ZM17 16.2C16.558 16.2 16.2 16.558 16.2 17V19.8C16.2 20.242 16.558 20.6 17 20.6H19.8C20.242 20.6 20.6 20.242 20.6 19.8V17C20.6 16.558 20.242 16.2 19.8 16.2Z" fill="#ffffff"/>
</svg>
